<svg xmlns="http://www.w3.org/2000/svg" width="16" height="16" viewBox="0 0 16 16">
  <g id="LogoutOutlined" transform="translate(0.058)">
    <rect id="Rectangle_43_Copy_3" data-name="Rectangle 43 Copy 3" width="16" height="16" transform="translate(-0.058)" fill="none"/>
    <g id="login" transform="translate(0)">
      <path id="Shape" d="M6.893,4.4a.56.56,0,0,0,.792.792L9.8,3.074a.565.565,0,0,0,0-.8L7.686.165a.56.56,0,0,0-.792.792L8.05,2.114l-7.49,0a.561.561,0,0,0,0,1.122l7.49,0Z" transform="translate(5.975 5.295)" fill="rgba(0,0,0,0.45)"/>
      <path id="Shape-2" data-name="Shape" d="M.627,4.87A7.965,7.965,0,0,1,14.315,3.148a.56.56,0,0,1-.89.679,6.906,6.906,0,0,0-2.362-1.969A6.842,6.842,0,0,0,3.128,3.126,6.853,6.853,0,0,0,5.3,14.282a6.865,6.865,0,0,0,5.762-.2,6.92,6.92,0,0,0,2.362-1.969.56.56,0,0,1,.89.679,8.039,8.039,0,0,1-2.748,2.292A7.967,7.967,0,0,1,0,7.971,7.881,7.881,0,0,1,.627,4.87Z" fill="rgba(0,0,0,0.45)"/>
    </g>
  </g>
</svg>
